<svg width="19" height="24" viewBox="0 0 19 24" fill="none" xmlns="http://www.w3.org/2000/svg">
<path d="M0.125 3V23.25C0.124901 23.3802 0.160132 23.5083 0.227226 23.6215C0.29432 23.7347 0.390963 23.8291 0.507643 23.8956C0.624323 23.962 0.757017 23.9982 0.892664 24.0004C1.02831 24.0027 1.16223 23.971 1.28125 23.9085L9.5 19.6035L17.7188 23.9085C17.8378 23.971 17.9717 24.0027 18.1073 24.0004C18.243 23.9982 18.3757 23.962 18.4924 23.8956C18.609 23.8291 18.7057 23.7347 18.7728 23.6215C18.8399 23.5083 18.8751 23.3802 18.875 23.25V3C18.875 2.20435 18.5458 1.44129 17.9597 0.87868C17.3737 0.316071 16.5788 0 15.75 0L3.25 0C2.4212 0 1.62634 0.316071 1.04029 0.87868C0.45424 1.44129 0.125 2.20435 0.125 3Z" fill="white"/>
</svg>
