<svg width="75" height="75" viewBox="0 0 75 75" fill="none" xmlns="http://www.w3.org/2000/svg">
<circle cx="37.5" cy="37.5" r="37.5" fill="#FF8000"/>
<path d="M29.1364 51.2729C28.835 51.2729 28.546 51.1532 28.3328 50.9401C28.1197 50.727 28 50.4379 28 50.1365V25.1362C28 24.9387 28.0515 24.7447 28.1494 24.5732C28.2473 24.4016 28.3881 24.2586 28.5581 24.1581C28.7281 24.0576 28.9214 24.0032 29.1188 24.0001C29.3163 23.9971 29.5111 24.0455 29.6841 24.1407L52.4117 36.6409C52.5899 36.739 52.7385 36.8831 52.8419 37.0582C52.9454 37.2333 53 37.433 53 37.6364C53 37.8398 52.9454 38.0394 52.8419 38.2145C52.7385 38.3896 52.5899 38.5337 52.4117 38.6318L29.6841 51.132C29.5163 51.2244 29.3279 51.2729 29.1364 51.2729Z" fill="white"/>
</svg>
