<svg width="18" height="19" viewBox="0 0 18 19" fill="none" xmlns="http://www.w3.org/2000/svg">
<path d="M1.46875 18.875C1.26155 18.875 1.06284 18.7927 0.916323 18.6462C0.76981 18.4997 0.6875 18.3009 0.6875 18.0937V0.906238C0.687523 0.77048 0.722922 0.637071 0.790208 0.51916C0.857495 0.40125 0.954345 0.302908 1.07121 0.233828C1.18808 0.164748 1.32093 0.127313 1.45668 0.125215C1.59242 0.123117 1.72636 0.156428 1.84531 0.221864L17.4703 8.81561C17.5928 8.88305 17.6949 8.98213 17.7661 9.10251C17.8372 9.22289 17.8748 9.36016 17.8748 9.49999C17.8748 9.63982 17.8372 9.77708 17.7661 9.89746C17.6949 10.0178 17.5928 10.1169 17.4703 10.1844L1.84531 18.7781C1.72996 18.8416 1.60043 18.8749 1.46875 18.875Z" fill="white"/>
</svg>
