<svg width="37" height="37" viewBox="0 0 37 37" fill="none" xmlns="http://www.w3.org/2000/svg">
<path fill-rule="evenodd" clip-rule="evenodd" d="M25 13.3984C25 15.1751 24.2977 16.8791 23.0475 18.1354C21.7974 19.3918 20.1018 20.0976 18.3338 20.0976C16.5658 20.0976 14.8702 19.3918 13.6201 18.1354C12.3699 16.8791 11.6676 15.1751 11.6676 13.3984C11.6676 11.6217 12.3699 9.91769 13.6201 8.66135C14.8702 7.40501 16.5658 6.6992 18.3338 6.6992C20.1018 6.6992 21.7974 7.40501 23.0475 8.66135C24.2977 9.91769 25 11.6217 25 13.3984ZM21.6669 13.3984C21.6669 14.2868 21.3157 15.1387 20.6907 15.7669C20.0656 16.3951 19.2178 16.748 18.3338 16.748C17.4498 16.748 16.602 16.3951 15.9769 15.7669C15.3519 15.1387 15.0007 14.2868 15.0007 13.3984C15.0007 12.51 15.3519 11.658 15.9769 11.0299C16.602 10.4017 17.4498 10.0488 18.3338 10.0488C19.2178 10.0488 20.0656 10.4017 20.6907 11.0299C21.3157 11.658 21.6669 12.51 21.6669 13.3984Z" fill="#BFBFBF"/>
<path fill-rule="evenodd" clip-rule="evenodd" d="M18.3338 0C8.20854 0 0 8.24837 0 18.4227C0 28.5971 8.20854 36.8455 18.3338 36.8455C28.4591 36.8455 36.6676 28.5971 36.6676 18.4227C36.6676 8.24837 28.4591 0 18.3338 0ZM3.33342 18.4227C3.33342 21.9231 4.52178 25.1454 6.5135 27.7045C7.91225 25.8587 9.71675 24.3628 11.786 23.3338C13.8553 22.3047 16.1333 21.7703 18.4421 21.7723C20.7211 21.7702 22.9704 22.2907 25.0189 23.2944C27.0673 24.298 28.8607 25.7582 30.2624 27.5638C31.7066 25.6605 32.6789 23.4391 33.099 21.0833C33.5191 18.7275 33.3749 16.305 32.6783 14.0163C31.9817 11.7276 30.7528 9.63853 29.0932 7.92184C27.4336 6.20516 25.3911 4.91026 23.1346 4.1443C20.8781 3.37833 18.4725 3.16331 16.1168 3.51702C13.7612 3.87074 11.5233 4.78303 9.58819 6.17841C7.65311 7.57378 6.07651 9.41213 4.98884 11.5413C3.90118 13.6705 3.33372 16.0294 3.33342 18.4227ZM18.3338 33.4959C14.8903 33.5011 11.5507 32.3107 8.88023 30.1262C9.95514 28.5799 11.3859 27.3174 13.0507 26.4462C14.7155 25.5749 16.5651 25.1206 18.4421 25.1219C20.2958 25.1204 22.123 25.5634 23.7722 26.4139C25.4213 27.2644 26.8446 28.4981 27.924 30.0123C25.2328 32.2678 21.8382 33.5008 18.3338 33.4959Z" fill="#BFBFBF"/>
</svg>
