<svg width="31" height="30" viewBox="0 0 31 30" fill="none" xmlns="http://www.w3.org/2000/svg">
<path d="M15.6632 9.99787C12.9089 9.99787 10.6612 12.2456 10.6612 15C10.6612 17.7544 12.9089 20.0021 15.6632 20.0021C18.4175 20.0021 20.6653 17.7544 20.6653 15C20.6653 12.2456 18.4175 9.99787 15.6632 9.99787ZM30.6656 15C30.6656 12.9286 30.6844 10.876 30.568 8.80832C30.4517 6.40669 29.9038 4.27525 28.1477 2.51907C26.3878 0.759128 24.2601 0.215011 21.8586 0.098682C19.7872 -0.0176466 17.7346 0.00111617 15.667 0.00111617C13.5956 0.00111617 11.543 -0.0176466 9.47542 0.098682C7.07384 0.215011 4.94244 0.762881 3.18629 2.51907C1.42638 4.27901 0.882273 6.40669 0.765947 8.80832C0.649621 10.8797 0.668383 12.9324 0.668383 15C0.668383 17.0676 0.649621 19.124 0.765947 21.1917C0.882273 23.5933 1.43013 25.7247 3.18629 27.4809C4.94619 29.2409 7.07384 29.785 9.47542 29.9013C11.5468 30.0176 13.5994 29.9989 15.667 29.9989C17.7383 29.9989 19.7909 30.0176 21.8586 29.9013C24.2601 29.785 26.3915 29.2371 28.1477 27.4809C29.9076 25.721 30.4517 23.5933 30.568 21.1917C30.6881 19.124 30.6656 17.0714 30.6656 15ZM15.6632 22.6964C11.4042 22.6964 7.96693 19.2591 7.96693 15C7.96693 10.7409 11.4042 7.30355 15.6632 7.30355C19.9223 7.30355 23.3595 10.7409 23.3595 15C23.3595 19.2591 19.9223 22.6964 15.6632 22.6964ZM23.6747 8.7858C22.6803 8.7858 21.8773 7.98276 21.8773 6.98834C21.8773 5.99392 22.6803 5.19087 23.6747 5.19087C24.6692 5.19087 25.4722 5.99392 25.4722 6.98834C25.4725 7.22447 25.4262 7.45834 25.336 7.67655C25.2457 7.89476 25.1134 8.09303 24.9464 8.26C24.7794 8.42697 24.5812 8.55936 24.3629 8.64958C24.1447 8.73981 23.9109 8.7861 23.6747 8.7858Z" fill="#BFBFBF"/>
</svg>
