<svg width="27" height="30" viewBox="0 0 27 30" fill="none" xmlns="http://www.w3.org/2000/svg">
<path d="M15.5025 0H19.1797C19.4471 1.34062 20.1825 3.03187 21.4732 4.71C22.7361 6.35437 24.4112 7.5 26.6454 7.5V11.25C23.3898 11.25 20.944 9.72375 19.2168 7.82062V20.625C19.2168 22.4792 18.6722 24.2918 17.6519 25.8335C16.6316 27.3752 15.1813 28.5768 13.4846 29.2864C11.7878 29.9959 9.9208 30.1816 8.11955 29.8199C6.3183 29.4581 4.66374 28.5652 3.36511 27.2541C2.06648 25.943 1.1821 24.2725 0.823812 22.454C0.465521 20.6354 0.649409 18.7504 1.35222 17.0373C2.05504 15.3243 3.24521 13.8601 4.77224 12.83C6.29926 11.7998 8.09456 11.25 9.9311 11.25V15C8.82918 15 7.752 15.3299 6.83578 15.948C5.91957 16.5661 5.20546 17.4446 4.78377 18.4724C4.36209 19.5002 4.25175 20.6312 4.46673 21.7224C4.6817 22.8135 5.21233 23.8158 5.99151 24.6025C6.77069 25.3891 7.76342 25.9249 8.84417 26.1419C9.92492 26.359 11.0452 26.2476 12.0632 25.8218C13.0812 25.3961 13.9514 24.6751 14.5636 23.7501C15.1758 22.8251 15.5025 21.7375 15.5025 20.625V0Z" fill="#BFBFBF"/>
</svg>
