<svg width="43" height="25" viewBox="0 0 43 25" fill="none" xmlns="http://www.w3.org/2000/svg">
<path fill-rule="evenodd" clip-rule="evenodd" d="M41.875 1.69286C42.1714 0.717857 41.875 0 40.4554 0H35.7679C34.575 0 34.025 0.619643 33.7268 1.30357C33.7268 1.30357 31.3429 7.01071 27.9661 10.7179C26.8732 11.7929 26.3768 12.1339 25.7804 12.1339C25.4821 12.1339 25.0339 11.7929 25.0339 10.8161V1.69286C25.0339 0.521428 24.7054 0 23.7125 0H16.3411C15.5964 0 15.1482 0.542857 15.1482 1.05893C15.1482 2.16786 16.8375 2.425 17.0107 5.54643V12.3286C17.0107 13.8161 16.7375 14.0857 16.1411 14.0857C14.5518 14.0857 10.6857 8.35179 8.39107 1.79107C7.94643 0.514285 7.49643 0 6.29821 0H1.60714C0.267857 0 0 0.619643 0 1.30357C0 2.52143 1.58929 8.57143 7.40179 16.5732C11.2768 22.0375 16.7321 25 21.7018 25C24.6821 25 25.05 24.3429 25.05 23.2089V19.0786C25.05 17.7625 25.3321 17.5 26.2768 17.5C26.9732 17.5 28.1643 17.8429 30.9464 20.4768C34.125 23.6 34.6482 25 36.4375 25H41.125C42.4643 25 43.1357 24.3429 42.75 23.0429C42.325 21.75 40.8071 19.8732 38.7946 17.6464C37.7018 16.3786 36.0625 15.0125 35.5643 14.3286C34.8696 13.4518 35.0679 13.0607 35.5643 12.2804C35.5643 12.2804 41.2786 4.37679 41.8732 1.69286H41.875Z" fill="#BFBFBF"/>
</svg>
