<svg width="40" height="28" viewBox="0 0 40 28" fill="none" xmlns="http://www.w3.org/2000/svg">
<path d="M26.25 14C26.25 15.6576 25.5915 17.2473 24.4194 18.4194C23.2473 19.5915 21.6576 20.25 20 20.25C18.3424 20.25 16.7527 19.5915 15.5806 18.4194C14.4085 17.2473 13.75 15.6576 13.75 14C13.75 12.3424 14.4085 10.7527 15.5806 9.58058C16.7527 8.40848 18.3424 7.75 20 7.75C21.6576 7.75 23.2473 8.40848 24.4194 9.58058C25.5915 10.7527 26.25 12.3424 26.25 14Z" fill="white"/>
<path d="M0 14C0 14 7.5 0.25 20 0.25C32.5 0.25 40 14 40 14C40 14 32.5 27.75 20 27.75C7.5 27.75 0 14 0 14ZM20 22.75C22.3206 22.75 24.5462 21.8281 26.1872 20.1872C27.8281 18.5462 28.75 16.3206 28.75 14C28.75 11.6794 27.8281 9.45376 26.1872 7.81282C24.5462 6.17187 22.3206 5.25 20 5.25C17.6794 5.25 15.4538 6.17187 13.8128 7.81282C12.1719 9.45376 11.25 11.6794 11.25 14C11.25 16.3206 12.1719 18.5462 13.8128 20.1872C15.4538 21.8281 17.6794 22.75 20 22.75Z" fill="white"/>
</svg>
